<svg xmlns="http://www.w3.org/2000/svg" xmlns:xlink="http://www.w3.org/1999/xlink" width="1220" height="277.1"><rect width="1220" height="277.1" rx="5" ry="5" class="a"/><svg y="0%" x="0%"><circle cx="20" cy="20" r="6" fill="#ff5f58"/><circle cx="40" cy="20" r="6" fill="#ffbd2e"/><circle cx="60" cy="20" r="6" fill="#18c132"/></svg><svg height="217.1" viewBox="0 0 118 21.71" width="1180" x="15" xmlns="http://www.w3.org/2000/svg" xmlns:xlink="http://www.w3.org/1999/xlink" y="50"><style>@keyframes k{0%{transform:translateX(0)}5.6%{transform:translateX(-118px)}26.7%{transform:translateX(-236px)}29.2%{transform:translateX(-354px)}30.6%{transform:translateX(-472px)}32.6%{transform:translateX(-590px)}34.2%{transform:translateX(-708px)}39.2%{transform:translateX(-826px)}41.8%{transform:translateX(-944px)}43.1%{transform:translateX(-1062px)}44.6%{transform:translateX(-1180px)}45.8%{transform:translateX(-1298px)}47.1%{transform:translateX(-1416px)}59.9%{transform:translateX(-1534px)}64.4%{transform:translateX(-1652px)}66.8%{transform:translateX(-1770px)}68.2%{transform:translateX(-1888px)}69.9%{transform:translateX(-2006px)}72.1%{transform:translateX(-2124px)}73.2%{transform:translateX(-2242px)}78.2%{transform:translateX(-2596px)}to{transform:translateX(-2714px)}}.a{fill:#282d35}.f{fill:#a8cc8c;font-weight:700}.g{fill:#b9c0cb}.h{fill:#71bef2;font-weight:700}</style><g font-size="1.67" font-family="Monaco,Consolas,Menlo,'Bitstream Vera Sans Mono','Powerline Symbols',monospace"><defs><symbol id="1"><text y="1.67" class="f">ssarwate@DESKTOP-ENAC7VC</text><text x="24.048" y="1.67" class="g">:</text><text x="25.05" y="1.67" class="h">/c/Users/Shubham</text><text x="42.084" y="1.67" class="h">Sarwate/Desktop/Scripts/code2gif</text><text x="74.148" y="1.67" class="g">$</text></symbol><symbol id="2"><text y="1.67" class="f">ssarwate@DESKTOP-ENAC7VC</text><text x="24.048" y="1.67" class="g">:</text><text x="25.05" y="1.67" class="h">/c/Users/Shubham</text><text x="42.084" y="1.67" class="h">Sarwate/Desktop/Scripts/code2gif</text><text x="74.148" y="1.67" class="g">$</text><text x="76.152" y="1.67" class="g">echo</text></symbol><symbol id="3"><text y="1.67" class="f">ssarwate@DESKTOP-ENAC7VC</text><text x="24.048" y="1.67" class="g">:</text><text x="25.05" y="1.67" class="h">/c/Users/Shubham</text><text x="42.084" y="1.67" class="h">Sarwate/Desktop/Scripts/code2gif</text><text x="74.148" y="1.67" class="g">$</text><text x="76.152" y="1.67" class="g">echo</text><text x="81.162" y="1.67" class="g">Hello</text></symbol><symbol id="4"><text y="1.67" class="f">ssarwate@DESKTOP-ENAC7VC</text><text x="24.048" y="1.67" class="g">:</text><text x="25.05" y="1.67" class="h">/c/Users/Shubham</text><text x="42.084" y="1.67" class="h">Sarwate/Desktop/Scripts/code2gif</text><text x="74.148" y="1.67" class="g">$</text><text x="76.152" y="1.67" class="g">echo</text><text x="81.162" y="1.67" class="g">Hello-World</text></symbol><symbol id="5"><text y="1.67" class="g">Hello-World</text></symbol><symbol id="a"><path fill="transparent" d="M0 0h118v10H0z"/></symbol><symbol id="b"><path fill="#6f7683" d="M0 0h1.102v2.171H0z"/></symbol></defs><path class="a" d="M0 0h118v21.71H0z"/><g style="animation-duration:10.445147s;animation-iteration-count:infinite;animation-name:k;animation-timing-function:steps(1,end)"><svg width="2832"><svg><use xlink:href="#a"/><use xlink:href="#b" x="-.004"/></svg><svg x="118"><use xlink:href="#a"/><use xlink:href="#b" x="75.996"/><use xlink:href="#1"/></svg><svg x="236"><use xlink:href="#a"/><use xlink:href="#b" x="76.996"/><text y="1.67" class="f">ssarwate@DESKTOP-ENAC7VC</text><text x="24.048" y="1.67" class="g">:</text><text x="25.05" y="1.67" class="h">/c/Users/Shubham</text><text x="42.084" y="1.67" class="h">Sarwate/Desktop/Scripts/code2gif</text><text x="74.148" y="1.67" class="g">$</text><text x="76.152" y="1.67" class="g">e</text></svg><svg x="354"><use xlink:href="#a"/><use xlink:href="#b" x="77.996"/><text y="1.67" class="f">ssarwate@DESKTOP-ENAC7VC</text><text x="24.048" y="1.67" class="g">:</text><text x="25.05" y="1.67" class="h">/c/Users/Shubham</text><text x="42.084" y="1.67" class="h">Sarwate/Desktop/Scripts/code2gif</text><text x="74.148" y="1.67" class="g">$</text><text x="76.152" y="1.67" class="g">ec</text></svg><svg x="472"><use xlink:href="#a"/><use xlink:href="#b" x="78.996"/><text y="1.67" class="f">ssarwate@DESKTOP-ENAC7VC</text><text x="24.048" y="1.67" class="g">:</text><text x="25.05" y="1.67" class="h">/c/Users/Shubham</text><text x="42.084" y="1.67" class="h">Sarwate/Desktop/Scripts/code2gif</text><text x="74.148" y="1.67" class="g">$</text><text x="76.152" y="1.67" class="g">ech</text></svg><svg x="590"><use xlink:href="#a"/><use xlink:href="#b" x="79.996"/><use xlink:href="#2"/></svg><svg x="708"><use xlink:href="#a"/><use xlink:href="#b" x="80.996"/><use xlink:href="#2"/></svg><svg x="826"><use xlink:href="#a"/><use xlink:href="#b" x="81.996"/><text y="1.67" class="f">ssarwate@DESKTOP-ENAC7VC</text><text x="24.048" y="1.67" class="g">:</text><text x="25.05" y="1.67" class="h">/c/Users/Shubham</text><text x="42.084" y="1.67" class="h">Sarwate/Desktop/Scripts/code2gif</text><text x="74.148" y="1.67" class="g">$</text><text x="76.152" y="1.67" class="g">echo</text><text x="81.162" y="1.67" class="g">H</text></svg><svg x="944"><use xlink:href="#a"/><use xlink:href="#b" x="82.996"/><text y="1.67" class="f">ssarwate@DESKTOP-ENAC7VC</text><text x="24.048" y="1.67" class="g">:</text><text x="25.05" y="1.67" class="h">/c/Users/Shubham</text><text x="42.084" y="1.67" class="h">Sarwate/Desktop/Scripts/code2gif</text><text x="74.148" y="1.67" class="g">$</text><text x="76.152" y="1.67" class="g">echo</text><text x="81.162" y="1.67" class="g">He</text></svg><svg x="1062"><use xlink:href="#a"/><use xlink:href="#b" x="83.996"/><text y="1.67" class="f">ssarwate@DESKTOP-ENAC7VC</text><text x="24.048" y="1.67" class="g">:</text><text x="25.05" y="1.67" class="h">/c/Users/Shubham</text><text x="42.084" y="1.67" class="h">Sarwate/Desktop/Scripts/code2gif</text><text x="74.148" y="1.67" class="g">$</text><text x="76.152" y="1.67" class="g">echo</text><text x="81.162" y="1.67" class="g">Hel</text></svg><svg x="1180"><use xlink:href="#a"/><use xlink:href="#b" x="84.996"/><text y="1.67" class="f">ssarwate@DESKTOP-ENAC7VC</text><text x="24.048" y="1.67" class="g">:</text><text x="25.05" y="1.67" class="h">/c/Users/Shubham</text><text x="42.084" y="1.67" class="h">Sarwate/Desktop/Scripts/code2gif</text><text x="74.148" y="1.67" class="g">$</text><text x="76.152" y="1.67" class="g">echo</text><text x="81.162" y="1.67" class="g">Hell</text></svg><svg x="1298"><use xlink:href="#a"/><use xlink:href="#b" x="85.996"/><use xlink:href="#3"/></svg><svg x="1416"><use xlink:href="#a"/><use xlink:href="#b" x="86.996"/><text y="1.67" class="f">ssarwate@DESKTOP-ENAC7VC</text><text x="24.048" y="1.67" class="g">:</text><text x="25.05" y="1.67" class="h">/c/Users/Shubham</text><text x="42.084" y="1.67" class="h">Sarwate/Desktop/Scripts/code2gif</text><text x="74.148" y="1.67" class="g">$</text><text x="76.152" y="1.67" class="g">echo</text><text x="81.162" y="1.67" class="g">Hellow</text></svg><svg x="1534"><use xlink:href="#a"/><use xlink:href="#b" x="85.996"/><use xlink:href="#3"/></svg><svg x="1652"><use xlink:href="#a"/><use xlink:href="#b" x="86.996"/><text y="1.67" class="f">ssarwate@DESKTOP-ENAC7VC</text><text x="24.048" y="1.67" class="g">:</text><text x="25.05" y="1.67" class="h">/c/Users/Shubham</text><text x="42.084" y="1.67" class="h">Sarwate/Desktop/Scripts/code2gif</text><text x="74.148" y="1.67" class="g">$</text><text x="76.152" y="1.67" class="g">echo</text><text x="81.162" y="1.67" class="g">Hello-</text></svg><svg x="1770"><use xlink:href="#a"/><use xlink:href="#b" x="87.996"/><text y="1.67" class="f">ssarwate@DESKTOP-ENAC7VC</text><text x="24.048" y="1.67" class="g">:</text><text x="25.05" y="1.67" class="h">/c/Users/Shubham</text><text x="42.084" y="1.67" class="h">Sarwate/Desktop/Scripts/code2gif</text><text x="74.148" y="1.67" class="g">$</text><text x="76.152" y="1.67" class="g">echo</text><text x="81.162" y="1.67" class="g">Hello-W</text></svg><svg x="1888"><use xlink:href="#a"/><use xlink:href="#b" x="88.996"/><text y="1.67" class="f">ssarwate@DESKTOP-ENAC7VC</text><text x="24.048" y="1.67" class="g">:</text><text x="25.05" y="1.67" class="h">/c/Users/Shubham</text><text x="42.084" y="1.67" class="h">Sarwate/Desktop/Scripts/code2gif</text><text x="74.148" y="1.67" class="g">$</text><text x="76.152" y="1.67" class="g">echo</text><text x="81.162" y="1.67" class="g">Hello-Wo</text></svg><svg x="2006"><use xlink:href="#a"/><use xlink:href="#b" x="89.996"/><text y="1.67" class="f">ssarwate@DESKTOP-ENAC7VC</text><text x="24.048" y="1.67" class="g">:</text><text x="25.05" y="1.67" class="h">/c/Users/Shubham</text><text x="42.084" y="1.67" class="h">Sarwate/Desktop/Scripts/code2gif</text><text x="74.148" y="1.67" class="g">$</text><text x="76.152" y="1.67" class="g">echo</text><text x="81.162" y="1.67" class="g">Hello-Wor</text></svg><svg x="2124"><use xlink:href="#a"/><use xlink:href="#b" x="90.996"/><text y="1.67" class="f">ssarwate@DESKTOP-ENAC7VC</text><text x="24.048" y="1.67" class="g">:</text><text x="25.05" y="1.67" class="h">/c/Users/Shubham</text><text x="42.084" y="1.67" class="h">Sarwate/Desktop/Scripts/code2gif</text><text x="74.148" y="1.67" class="g">$</text><text x="76.152" y="1.67" class="g">echo</text><text x="81.162" y="1.67" class="g">Hello-Worl</text></svg><svg x="2242"><use xlink:href="#a"/><use xlink:href="#b" x="91.996"/><use xlink:href="#4"/></svg><svg x="2360"><use xlink:href="#a"/><use xlink:href="#b" x="-.004" y="2.146"/><use xlink:href="#4"/></svg><svg x="2478"><use xlink:href="#a"/><use xlink:href="#b" x="-.004" y="4.317"/><use xlink:href="#4"/><use xlink:href="#5" y="2.171"/></svg><svg x="2596"><use xlink:href="#a"/><use xlink:href="#b" x="75.996" y="4.317"/><use xlink:href="#4"/><use xlink:href="#5" y="2.171"/><use xlink:href="#1" y="4.342"/></svg><svg x="2714"><use xlink:href="#a"/><use xlink:href="#b" x="-.004" y="6.488"/><use xlink:href="#4"/><use xlink:href="#5" y="2.171"/><text y="6.012" class="f">ssarwate@DESKTOP-ENAC7VC</text><text x="24.048" y="6.012" class="g">:</text><text x="25.05" y="6.012" class="h">/c/Users/Shubham</text><text x="42.084" y="6.012" class="h">Sarwate/Desktop/Scripts/code2gif</text><text x="74.148" y="6.012" class="g">$</text><text x="76.152" y="6.012" class="g">exit</text></svg></svg></g></g></svg></svg>