<svg xmlns="http://www.w3.org/2000/svg" xmlns:xlink="http://www.w3.org/1999/xlink" width="1180" height="217.1"><rect width="1180" height="217.1" rx="0" ry="0" class="a"/><svg height="217.1" viewBox="0 0 118 21.71" width="1180" xmlns="http://www.w3.org/2000/svg" xmlns:xlink="http://www.w3.org/1999/xlink"><style>@keyframes h{0%{transform:translateX(0)}6.3%{transform:translateX(-118px)}31.8%{transform:translateX(-236px)}41.2%{transform:translateX(-354px)}45.6%{transform:translateX(-472px)}48.1%{transform:translateX(-590px)}50.7%{transform:translateX(-708px)}54.1%{transform:translateX(-826px)}55.8%{transform:translateX(-944px)}58.5%{transform:translateX(-1062px)}61.6%{transform:translateX(-1180px)}64.5%{transform:translateX(-1298px)}66%{transform:translateX(-1416px)}68.5%{transform:translateX(-1534px)}70.5%{transform:translateX(-1652px)}72.6%{transform:translateX(-1770px)}74.9%{transform:translateX(-2006px)}75%{transform:translateX(-2124px)}to{transform:translateX(-2242px)}}.a{fill:#282d35}.c{fill:#a8cc8c;font-weight:700}.d{fill:#b9c0cb}.e{fill:#71bef2;font-weight:700}</style><g font-size="1.67" font-family="Monaco,Consolas,Menlo,'Bitstream Vera Sans Mono','Powerline Symbols',monospace"><defs><symbol id="1"><text y="1.67" class="c">ssarwate@DESKTOP-ENAC7VC</text><text x="24.048" y="1.67" class="d">:</text><text x="25.05" y="1.67" class="e">/c/Users/Shubham</text><text x="42.084" y="1.67" class="e">Sarwate/Desktop/Scripts</text><text x="65.13" y="1.67" class="d">$</text></symbol><symbol id="2"><text y="1.67" class="c">ssarwate@DESKTOP-ENAC7VC</text><text x="24.048" y="1.67" class="d">:</text><text x="25.05" y="1.67" class="e">/c/Users/Shubham</text><text x="42.084" y="1.67" class="e">Sarwate/Desktop/Scripts</text><text x="65.13" y="1.67" class="d">$</text><text x="67.134" y="1.67" class="d">h</text></symbol><symbol id="3"><text y="1.67" class="c">ssarwate@DESKTOP-ENAC7VC</text><text x="24.048" y="1.67" class="d">:</text><text x="25.05" y="1.67" class="e">/c/Users/Shubham</text><text x="42.084" y="1.67" class="e">Sarwate/Desktop/Scripts</text><text x="65.13" y="1.67" class="d">$</text><text x="67.134" y="1.67" class="d">echo</text></symbol><symbol id="4"><text y="1.67" class="c">ssarwate@DESKTOP-ENAC7VC</text><text x="24.048" y="1.67" class="d">:</text><text x="25.05" y="1.67" class="e">/c/Users/Shubham</text><text x="42.084" y="1.67" class="e">Sarwate/Desktop/Scripts</text><text x="65.13" y="1.67" class="d">$</text><text x="67.134" y="1.67" class="d">echo</text><text x="72.144" y="1.67" class="d">hello</text></symbol><symbol id="5"><text y="1.67" class="d">hello</text></symbol><symbol id="a"><path fill="transparent" d="M0 0h118v10H0z"/></symbol><symbol id="b"><path fill="#6f7683" d="M0 0h1.102v2.171H0z"/></symbol></defs><path class="a" d="M0 0h118v21.71H0z"/><g style="animation-duration:7.459078s;animation-iteration-count:infinite;animation-name:h;animation-timing-function:steps(1,end)"><svg width="2360"><svg><use xlink:href="#a"/><use xlink:href="#b" x="-.004"/></svg><svg x="118"><use xlink:href="#a"/><use xlink:href="#b" x="66.996"/><use xlink:href="#1"/></svg><svg x="236"><use xlink:href="#a"/><use xlink:href="#b" x="67.996"/><use xlink:href="#2"/></svg><svg x="354"><use xlink:href="#a"/><use xlink:href="#b" x="68.996"/><text y="1.67" class="c">ssarwate@DESKTOP-ENAC7VC</text><text x="24.048" y="1.67" class="d">:</text><text x="25.05" y="1.67" class="e">/c/Users/Shubham</text><text x="42.084" y="1.67" class="e">Sarwate/Desktop/Scripts</text><text x="65.13" y="1.67" class="d">$</text><text x="67.134" y="1.67" class="d">he</text></svg><svg x="472"><use xlink:href="#a"/><use xlink:href="#b" x="67.996"/><use xlink:href="#2"/></svg><svg x="590"><use xlink:href="#a"/><use xlink:href="#b" x="66.996"/><use xlink:href="#1"/></svg><svg x="708"><use xlink:href="#a"/><use xlink:href="#b" x="67.996"/><text y="1.67" class="c">ssarwate@DESKTOP-ENAC7VC</text><text x="24.048" y="1.67" class="d">:</text><text x="25.05" y="1.67" class="e">/c/Users/Shubham</text><text x="42.084" y="1.67" class="e">Sarwate/Desktop/Scripts</text><text x="65.13" y="1.67" class="d">$</text><text x="67.134" y="1.67" class="d">e</text></svg><svg x="826"><use xlink:href="#a"/><use xlink:href="#b" x="68.996"/><text y="1.67" class="c">ssarwate@DESKTOP-ENAC7VC</text><text x="24.048" y="1.67" class="d">:</text><text x="25.05" y="1.67" class="e">/c/Users/Shubham</text><text x="42.084" y="1.67" class="e">Sarwate/Desktop/Scripts</text><text x="65.13" y="1.67" class="d">$</text><text x="67.134" y="1.67" class="d">ec</text></svg><svg x="944"><use xlink:href="#a"/><use xlink:href="#b" x="69.996"/><text y="1.67" class="c">ssarwate@DESKTOP-ENAC7VC</text><text x="24.048" y="1.67" class="d">:</text><text x="25.05" y="1.67" class="e">/c/Users/Shubham</text><text x="42.084" y="1.67" class="e">Sarwate/Desktop/Scripts</text><text x="65.13" y="1.67" class="d">$</text><text x="67.134" y="1.67" class="d">ech</text></svg><svg x="1062"><use xlink:href="#a"/><use xlink:href="#b" x="70.996"/><use xlink:href="#3"/></svg><svg x="1180"><use xlink:href="#a"/><use xlink:href="#b" x="71.996"/><use xlink:href="#3"/></svg><svg x="1298"><use xlink:href="#a"/><use xlink:href="#b" x="72.996"/><text y="1.67" class="c">ssarwate@DESKTOP-ENAC7VC</text><text x="24.048" y="1.67" class="d">:</text><text x="25.05" y="1.67" class="e">/c/Users/Shubham</text><text x="42.084" y="1.67" class="e">Sarwate/Desktop/Scripts</text><text x="65.13" y="1.67" class="d">$</text><text x="67.134" y="1.67" class="d">echo</text><text x="72.144" y="1.67" class="d">h</text></svg><svg x="1416"><use xlink:href="#a"/><use xlink:href="#b" x="73.996"/><text y="1.67" class="c">ssarwate@DESKTOP-ENAC7VC</text><text x="24.048" y="1.67" class="d">:</text><text x="25.05" y="1.67" class="e">/c/Users/Shubham</text><text x="42.084" y="1.67" class="e">Sarwate/Desktop/Scripts</text><text x="65.13" y="1.67" class="d">$</text><text x="67.134" y="1.67" class="d">echo</text><text x="72.144" y="1.67" class="d">he</text></svg><svg x="1534"><use xlink:href="#a"/><use xlink:href="#b" x="74.996"/><text y="1.67" class="c">ssarwate@DESKTOP-ENAC7VC</text><text x="24.048" y="1.67" class="d">:</text><text x="25.05" y="1.67" class="e">/c/Users/Shubham</text><text x="42.084" y="1.67" class="e">Sarwate/Desktop/Scripts</text><text x="65.13" y="1.67" class="d">$</text><text x="67.134" y="1.67" class="d">echo</text><text x="72.144" y="1.67" class="d">hel</text></svg><svg x="1652"><use xlink:href="#a"/><use xlink:href="#b" x="75.996"/><text y="1.67" class="c">ssarwate@DESKTOP-ENAC7VC</text><text x="24.048" y="1.67" class="d">:</text><text x="25.05" y="1.67" class="e">/c/Users/Shubham</text><text x="42.084" y="1.67" class="e">Sarwate/Desktop/Scripts</text><text x="65.13" y="1.67" class="d">$</text><text x="67.134" y="1.67" class="d">echo</text><text x="72.144" y="1.67" class="d">hell</text></svg><svg x="1770"><use xlink:href="#a"/><use xlink:href="#b" x="76.996"/><use xlink:href="#4"/></svg><svg x="1888"><use xlink:href="#a"/><use xlink:href="#b" x="-.004" y="2.146"/><use xlink:href="#4"/></svg><svg x="2006"><use xlink:href="#a"/><use xlink:href="#b" x="-.004" y="4.317"/><use xlink:href="#4"/><use xlink:href="#5" y="2.171"/></svg><svg x="2124"><use xlink:href="#a"/><use xlink:href="#b" x="66.996" y="4.317"/><use xlink:href="#4"/><use xlink:href="#5" y="2.171"/><use xlink:href="#1" y="4.342"/></svg><svg x="2242"><use xlink:href="#a"/><use xlink:href="#b" x="-.004" y="6.488"/><use xlink:href="#4"/><use xlink:href="#5" y="2.171"/><text y="6.012" class="c">ssarwate@DESKTOP-ENAC7VC</text><text x="24.048" y="6.012" class="d">:</text><text x="25.05" y="6.012" class="e">/c/Users/Shubham</text><text x="42.084" y="6.012" class="e">Sarwate/Desktop/Scripts</text><text x="65.13" y="6.012" class="d">$</text><text x="67.134" y="6.012" class="d">exit</text></svg></svg></g></g></svg></svg>